<mxfile host="app.diagrams.net" modified="2023-10-10T02:18:56.191Z" agent="Mozilla/5.0 (Macintosh; Intel Mac OS X 10_15_7) AppleWebKit/537.36 (KHTML, like Gecko) Chrome/117.0.0.0 Safari/537.36" version="22.0.4" etag="HnwYIaUKNSw69_mQz_DB" type="github">
  <diagram name="페이지-1" id="HDxFREO_OPp5HufmHN-d">
    <mxGraphModel>
      <root>
        <mxCell id="0" />
        <mxCell id="1" parent="0" />
      </root>
    </mxGraphModel>
  </diagram>
</mxfile>
